# xmcd
#
# Track frame offsets:
#	175
#	16707
#	33470
#	48630
#	61775
#	83290
#	102512
#	129600
#	148015
#	170675
#	190457
#	207185
#	240245
#	258440
#	275575
#
# Disc length: 3910 seconds
#
# Revision: 0
# Processed by: cddbd v1.4PL0 Copyright (c) Steve Scherf et al.
# Submitted via: EasyCDDAExtractor 4.6.0.1
#
DISCID=ce0f440f
DTITLE=Various Artist - Грустные истории любви
DYEAR=1995
DGENRE=Dance
TTITLE0=Валерия - Обычные дела
TTITLE1=А. Буйнов - Живи, как знаешь
TTITLE2=Браво - Доктор ночь
TTITLE3=И. Дюкова - Как мне быть
TTITLE4=Владимир Пресняков - Птица
TTITLE5=Наталья Сенчукова - Я по тебе скучаю
TTITLE6=Владимир Кузьмин - Я не забуду тебя
TTITLE7=Наталья Королёва - Голубой топаз
TTITLE8=Наталья Штурм - Чёрная лилия
TTITLE9=С. Крох - Ночной автобус
TTITLE10=Ника - Сколько лет
TTITLE11=Игорь Саруханов - На кошачих лапках тишина
TTITLE12=Анжелика Варум - Свеча
TTITLE13=Валерий Меладзе - Сэра
TTITLE14=Агата Кристи - Чёрная луна
EXTD=
EXTT0=
EXTT1=
EXTT2=
EXTT3=
EXTT4=
EXTT5=
EXTT6=
EXTT7=
EXTT8=
EXTT9=
EXTT10=
EXTT11=
EXTT12=
EXTT13=
EXTT14=
PLAYORDER=
